<?xml version="1.0" standalone="no"?>
<!DOCTYPE svg PUBLIC "-//W3C//DTD SVG 20010904//EN"
 "http://www.w3.org/TR/2001/REC-SVG-20010904/DTD/svg10.dtd">
<svg version="1.0" xmlns="http://www.w3.org/2000/svg"
 width="16.000000pt" height="16.000000pt" viewBox="0 0 16.000000 16.000000"
 preserveAspectRatio="xMidYMid meet">
<metadata>
Created by potrace 1.11, written by Peter Selinger 2001-2013
</metadata>
<g transform="translate(0.000000,16.000000) scale(0.005079,-0.005079)"
fill="#000000" stroke="none">
<path d="M717 2913 c-4 -3 -7 -21 -7 -39 0 -31 -2 -33 -37 -36 -36 -3 -38 -5
-41 -40 -3 -35 -5 -37 -40 -40 l-37 -3 -3 -1037 -2 -1038 22 -1 c13 -1 31 -1
41 0 16 2 17 -13 17 -198 l0 -201 925 0 925 0 0 201 0 201 38 -4 37 -3 0 1040
0 1040 -37 3 c-35 3 -37 5 -40 40 -3 35 -5 37 -40 40 -35 3 -37 5 -40 40 l-3
37 -836 3 c-459 1 -839 -1 -842 -5z m1675 -120 c3 -36 5 -38 41 -41 l37 -3 0
-1035 0 -1034 -915 0 -915 0 0 1034 0 1035 38 3 c35 3 37 5 40 41 l3 37 834 0
834 0 3 -37z m8 -2313 l0 -120 -845 0 -845 0 0 120 0 120 845 0 845 0 0 -120z"/>
<path d="M878 2633 c-3 -36 -5 -38 -40 -41 l-38 -3 0 -555 0 -554 24 0 c44 0
56 -10 56 -46 l0 -34 674 0 675 0 3 38 c3 35 5 37 41 40 l37 3 0 554 0 554
-37 3 c-36 3 -38 5 -41 41 l-3 37 -674 0 -674 0 -3 -37z m1352 -598 l0 -555
-675 0 -675 0 0 555 0 555 675 0 675 0 0 -555z"/>
<path d="M1200 2280 l0 -80 40 0 40 0 0 80 0 80 -40 0 -40 0 0 -80z"/>
<path d="M1520 2160 l0 -200 -40 0 -40 0 0 -40 0 -40 75 0 75 0 0 240 0 240
-35 0 -35 0 0 -200z"/>
<path d="M1757 2353 c-4 -3 -7 -39 -7 -80 l0 -73 40 0 40 0 0 80 0 80 -33 0
c-19 0 -37 -3 -40 -7z"/>
<path d="M1280 1760 c0 -36 3 -40 24 -40 43 0 56 -10 56 -46 l0 -33 155 -3
154 -3 3 40 c3 38 5 40 41 43 36 3 37 4 37 43 l0 40 -37 -3 c-36 -3 -38 -5
-41 -40 l-3 -38 -155 0 -154 0 0 40 0 40 -40 0 -40 0 0 -40z"/>
<path d="M1750 1040 l0 -40 240 0 240 0 0 40 0 40 -240 0 -240 0 0 -40z"/>
<path d="M798 988 c-2 -6 -2 -24 0 -40 l4 -28 79 0 79 0 0 40 0 40 -79 0 c-51
0 -81 -4 -83 -12z"/>
</g>
</svg>
